<svg width="1360" height="347" viewBox="0 0 1360 347" fill="none" xmlns="http://www.w3.org/2000/svg">
<g clip-path="url(#clip0_664_17)">
<path d="M398.512 44.9749L282.398 304.46C282.172 304.963 281.806 305.391 281.344 305.692C280.881 305.992 280.342 306.153 279.79 306.155H235.622C235.144 306.154 234.674 306.033 234.255 305.803C233.835 305.574 233.48 305.243 233.221 304.842C232.962 304.44 232.807 303.98 232.771 303.504C232.735 303.027 232.818 302.549 233.014 302.113L278.442 200.275C278.747 199.522 278.747 198.681 278.442 197.928L210.452 44.9749C210.256 44.5388 210.173 44.0608 210.209 43.5843C210.245 43.1077 210.4 42.6478 210.659 42.2462C210.918 41.8446 211.273 41.5142 211.693 41.2848C212.112 41.0554 212.582 40.9344 213.06 40.9327H257.141C257.711 40.9275 258.27 41.0951 258.743 41.4132C259.216 41.7312 259.582 42.185 259.793 42.7149L301.526 141.467C301.733 141.995 302.095 142.449 302.565 142.769C303.034 143.088 303.588 143.259 304.156 143.259C304.724 143.259 305.278 143.088 305.747 142.769C306.217 142.449 306.578 141.995 306.786 141.467L348.824 42.7149C349.044 42.1918 349.412 41.7444 349.883 41.4278C350.354 41.1112 350.908 40.9391 351.476 40.9327H395.904C396.378 40.945 396.842 41.073 397.255 41.3052C397.668 41.5374 398.019 41.8669 398.276 42.2653C398.533 42.6636 398.689 43.1187 398.73 43.5909C398.771 44.0632 398.697 44.5381 398.512 44.9749Z" fill="#0B0B0B"/>
<path d="M571.89 85.6995H521.506C520.745 85.6995 520.015 86.0019 519.477 86.5399C518.939 87.0779 518.637 87.8075 518.637 88.5683V220.397C518.637 221.158 518.334 221.888 517.796 222.426C517.258 222.964 516.528 223.266 515.768 223.266H473.686C473.308 223.272 472.932 223.202 472.582 223.059C472.231 222.917 471.912 222.706 471.645 222.439C471.377 222.171 471.166 221.853 471.024 221.502C470.882 221.151 470.811 220.776 470.817 220.397V88.5683C470.806 87.811 470.5 87.0877 469.964 86.5521C469.429 86.0165 468.706 85.7107 467.948 85.6995H417.825C417.064 85.6995 416.334 85.3973 415.796 84.8593C415.258 84.3213 414.955 83.5917 414.955 82.8309V43.7126C414.955 42.9518 415.258 42.2222 415.796 41.6842C416.334 41.1462 417.064 40.8438 417.825 40.8438H571.89C572.651 40.8438 573.381 41.1462 573.919 41.6842C574.457 42.2222 574.759 42.9518 574.759 43.7126V82.8309C574.759 83.5917 574.457 84.3213 573.919 84.8593C573.381 85.3973 572.651 85.6995 571.89 85.6995Z" fill="#0B0B0B"/>
<path d="M91.1415 40.9771C78.4325 40.998 65.8678 43.6719 54.2518 48.8275C42.6358 53.9831 32.2244 61.5067 23.6842 70.917C15.1439 80.3273 8.66283 91.4169 4.65594 103.476C0.649049 115.535 -0.795419 128.297 0.414986 140.946C4.76221 188.323 47.4519 223.138 95.054 223.138H186.346C187.103 223.127 187.827 222.821 188.362 222.286C188.898 221.75 189.204 221.027 189.215 220.27V43.8456C189.215 43.0848 188.913 42.3552 188.375 41.8172C187.837 41.2792 187.107 40.9771 186.346 40.9771H91.1415ZM138.961 178.543H52.0165C51.2591 178.532 50.5358 178.226 50.0001 177.691C49.4645 177.155 49.1586 176.432 49.1473 175.675V88.7448C49.1586 87.9875 49.4645 87.2645 50.0001 86.7289C50.5358 86.1934 51.2591 85.8875 52.0165 85.8763H138.961C139.719 85.8875 140.442 86.1934 140.978 86.7289C141.513 87.2645 141.819 87.9875 141.83 88.7448V175.675C141.819 176.432 141.513 177.155 140.978 177.691C140.442 178.226 139.719 178.532 138.961 178.543Z" fill="#0B0B0B"/>
<path d="M633.285 175.675V88.7456C633.296 87.9883 633.602 87.2653 634.138 86.7297C634.673 86.1941 635.397 85.8883 636.154 85.877H750.79C751.555 85.8771 752.29 85.5763 752.835 85.0395C753.38 84.5028 753.691 83.773 753.703 83.0082V43.8899C753.703 43.5095 753.627 43.133 753.48 42.782C753.334 42.4311 753.118 42.1131 752.847 41.8461C752.576 41.5791 752.255 41.3685 751.902 41.2269C751.548 41.0853 751.171 41.0156 750.79 41.0213H679.235C631.633 41.0213 589.117 75.7931 584.596 123.213C583.386 135.862 584.83 148.625 588.837 160.684C592.844 172.743 599.325 183.832 607.865 193.243C616.405 202.653 626.817 210.177 638.433 215.332C650.049 220.488 662.613 223.162 675.322 223.182H750.79C751.555 223.182 752.29 222.882 752.835 222.345C753.38 221.808 753.691 221.079 753.703 220.314V181.196C753.703 180.815 753.627 180.439 753.48 180.088C753.334 179.737 753.118 179.418 752.847 179.151C752.576 178.885 752.255 178.674 751.902 178.533C751.548 178.391 751.171 178.321 750.79 178.327H636.154C635.397 178.315 634.673 178.01 634.138 177.474C633.602 176.938 633.296 176.215 633.285 175.458" fill="#0B0B0B"/>
<path d="M1240.19 175.676V88.7461C1240.19 87.9853 1240.49 87.2557 1241.03 86.7177C1241.57 86.1797 1242.3 85.8775 1243.06 85.8775H1357.69C1358.45 85.8775 1359.18 85.5754 1359.72 85.0374C1360.26 84.4994 1360.56 83.7695 1360.56 83.0087V43.8904C1360.57 43.512 1360.5 43.1364 1360.36 42.7857C1360.21 42.435 1360 42.1166 1359.74 41.849C1359.47 41.5814 1359.15 41.3703 1358.8 41.2282C1358.45 41.0861 1358.07 41.016 1357.69 41.0218H1286.14C1238.32 41.0218 1195.98 75.7936 1191.46 123.214C1190.25 135.863 1191.69 148.626 1195.7 160.684C1199.7 172.743 1206.18 183.833 1214.72 193.243C1223.27 202.653 1233.68 210.177 1245.29 215.333C1256.91 220.488 1269.47 223.162 1282.18 223.183H1357.69C1358.45 223.183 1359.18 222.881 1359.72 222.343C1360.26 221.805 1360.56 221.075 1360.56 220.314V181.196C1360.57 180.818 1360.5 180.442 1360.36 180.091C1360.21 179.741 1360 179.422 1359.74 179.154C1359.47 178.887 1359.15 178.676 1358.8 178.534C1358.45 178.391 1358.07 178.321 1357.69 178.327H1243.19C1242.81 178.327 1242.44 178.253 1242.09 178.109C1241.74 177.965 1241.43 177.753 1241.16 177.487C1240.89 177.221 1240.68 176.904 1240.54 176.556C1240.39 176.208 1240.32 175.835 1240.32 175.459" fill="#0B0B0B"/>
<path d="M1077.96 40.9771C1077.22 40.9771 1076.57 40.9771 1075.83 40.9771H983.885C983.124 40.9771 982.394 41.2792 981.856 41.8172C981.318 42.3552 981.016 43.0848 981.016 43.8456V303.287C981.016 304.048 981.318 304.778 981.856 305.316C982.394 305.854 983.124 306.156 983.885 306.156H1025.79C1026.17 306.162 1026.55 306.092 1026.9 305.95C1027.25 305.808 1027.57 305.596 1027.84 305.329C1028.1 305.061 1028.31 304.743 1028.46 304.392C1028.6 304.041 1028.67 303.666 1028.66 303.287V226.137C1028.67 225.38 1028.98 224.657 1029.52 224.121C1030.05 223.586 1030.77 223.28 1031.53 223.269H1075.66V223.051C1076.39 223.051 1077.05 223.269 1077.79 223.269C1101.12 222.02 1123.09 211.873 1139.16 194.917C1155.24 177.961 1164.2 155.486 1164.2 132.123C1164.2 108.759 1155.24 86.2851 1139.16 69.3289C1123.09 52.3727 1101.12 42.2254 1077.79 40.9771M1118.65 178.543H1031.71C1030.95 178.532 1030.22 178.226 1029.69 177.691C1029.15 177.155 1028.85 176.432 1028.84 175.675V88.7448C1028.85 87.9875 1029.15 87.2645 1029.69 86.7289C1030.22 86.1934 1030.95 85.8875 1031.71 85.8763H1118.65C1119.41 85.8875 1120.13 86.1934 1120.67 86.7289C1121.2 87.2645 1121.51 87.9875 1121.52 88.7448V175.675C1121.51 176.432 1121.2 177.155 1120.67 177.691C1120.13 178.226 1119.41 178.532 1118.65 178.543Z" fill="#0B0B0B"/>
<path d="M862.345 40.9624C844.289 40.9624 826.639 46.3156 811.626 56.3451C796.613 66.3747 784.912 80.63 778.002 97.3085C771.093 113.987 769.285 132.34 772.807 150.046C776.33 167.752 785.024 184.015 797.792 196.781C810.559 209.546 826.826 218.239 844.535 221.761C862.244 225.283 880.599 223.475 897.281 216.567C913.962 209.658 928.22 197.959 938.251 182.949C948.282 167.939 953.636 150.291 953.636 132.238C953.636 108.031 944.018 84.8141 926.898 67.6966C909.777 50.579 886.557 40.9624 862.345 40.9624ZM905.817 178.529H818.873C818.112 178.529 817.382 178.226 816.844 177.688C816.306 177.15 816.003 176.421 816.003 175.66V88.7302C816.003 87.9694 816.306 87.2398 816.844 86.7018C817.382 86.1638 818.112 85.8616 818.873 85.8616H905.817C906.574 85.8729 907.298 86.1787 907.833 86.7143C908.369 87.2498 908.675 87.9729 908.686 88.7302V175.66C908.675 176.417 908.369 177.141 907.833 177.676C907.298 178.212 906.574 178.518 905.817 178.529Z" fill="#0B0B0B"/>
</g>
<defs>
<clipPath id="clip0_664_17">
<rect width="1360" height="347" fill="white"/>
</clipPath>
</defs>
</svg>
