<svg width="32" height="32" viewBox="0 0 32 32" fill="none" xmlns="http://www.w3.org/2000/svg">
<g clip-path="url(#clip0_537_33)">
<path d="M15.4303 0.975586C13.3412 0.979034 11.2759 1.42011 9.36655 2.27056C7.45717 3.121 5.7458 4.36206 4.34199 5.91435C2.93818 7.46664 1.87287 9.29594 1.21423 11.2851C0.555601 13.2743 0.318167 15.3795 0.517127 17.4661C1.2317 25.2811 8.24882 31.0241 16.0734 31.0241H31.0795C31.204 31.0223 31.3229 30.9718 31.4109 30.8835C31.499 30.7951 31.5493 30.6759 31.5511 30.5509V1.44877C31.5511 1.32327 31.5014 1.20292 31.413 1.11418C31.3245 1.02543 31.2046 0.975586 31.0795 0.975586H15.4303ZM23.2906 23.668H8.99913C8.87462 23.6661 8.75573 23.6157 8.66768 23.5273C8.57963 23.439 8.52935 23.3197 8.5275 23.1947V8.85517C8.52935 8.73024 8.57963 8.61097 8.66768 8.52263C8.75573 8.43428 8.87462 8.38383 8.99913 8.38198H23.2906C23.4151 8.38383 23.534 8.43428 23.6221 8.52263C23.7101 8.61097 23.7604 8.73024 23.7622 8.85517V23.1947C23.7604 23.3197 23.7101 23.439 23.6221 23.5273C23.534 23.6157 23.4151 23.6661 23.2906 23.668Z" fill="#0B0B0B"/>
</g>
<defs>
<clipPath id="clip0_537_33">
<rect width="32" height="32" fill="white"/>
</clipPath>
</defs>
</svg>
