<svg width="28" height="28" viewBox="0 0 28 28" fill="none" xmlns="http://www.w3.org/2000/svg"><path d="M14.9091 18.3893V20.2222H19.4545V22H8.54545V20.2222H13.0909V18.3893C11.3334 18.1726 9.71711 17.3362 8.54546 16.0371C7.37381 14.738 6.7273 13.0654 6.72727 11.3333V6H21.2727V11.3333C21.2727 13.0654 20.6262 14.738 19.4545 16.0371C18.2829 17.3362 16.6666 18.1726 14.9091 18.3893V18.3893ZM8.54545 7.77778V11.3333C8.54545 12.7478 9.12013 14.1044 10.1431 15.1046C11.166 16.1048 12.5534 16.6667 14 16.6667C15.4466 16.6667 16.834 16.1048 17.8569 15.1046C18.8799 14.1044 19.4545 12.7478 19.4545 11.3333V7.77778H8.54545ZM4 7.77778H5.81818V11.3333H4V7.77778ZM22.1818 7.77778H24V11.3333H22.1818V7.77778Z" fill="#0B0B0B"/></svg>