<svg width="93" height="36" viewBox="0 0 93 36" fill="none" xmlns="http://www.w3.org/2000/svg"><path d="M6.97239 12.3164V14.8592C6.7319 14.8159 6.51369 14.7948 6.3181 14.7948C5.2196 14.7948 4.36236 15.0978 3.74517 15.7029C3.12838 16.3087 2.8204 17.1809 2.8204 18.3201V23.8545H0V12.4447H1.37726L2.68535 14.111C3.49771 12.9141 4.92685 12.3164 6.97239 12.3164Z" fill="#0B0B0B"/><path d="M18.6126 23.8544H15.7922V11.5573L18.6126 8V23.8544Z" fill="#0B0B0B"/><path d="M39.7235 19.0048H30.2688C30.4339 19.845 30.867 20.5105 31.5661 21.0021C32.2653 21.4934 33.1345 21.7394 34.1729 21.7394C35.4962 21.7394 36.5869 21.3265 37.4441 20.5L38.8449 22.2673C38.303 22.8798 37.7299 23.2209 36.9031 23.534C36.0751 23.8478 35.1433 24.0042 34.1049 24.0042C32.7808 24.0042 31.6147 23.7551 30.6072 23.2568C29.5993 22.7581 28.8207 22.0637 28.2718 21.1733C27.7222 20.2828 27.4479 19.2754 27.4479 18.1494C27.4479 17.0382 27.7152 16.0378 28.2488 15.1477C28.7828 14.2572 29.5243 13.5628 30.4717 13.0642C31.4196 12.5659 32.488 12.3164 33.6759 12.3164C34.8498 12.3164 35.8985 12.562 36.8236 13.0533C37.7492 13.5453 38.4714 14.2362 38.9902 15.1262C39.509 16.0167 39.7688 17.046 39.7688 18.2137C39.7692 18.3985 39.7531 18.6621 39.7235 19.0048ZM31.3862 15.2116C30.7616 15.7177 30.382 16.3902 30.2461 17.2305H37.0839C36.9632 16.4051 36.5951 15.7348 35.9784 15.2226C35.3607 14.7095 34.5941 14.4526 33.6763 14.4526C32.7734 14.4522 32.01 14.7056 31.3862 15.2116Z" fill="#0B0B0B"/><path d="M53.7592 19.0048H44.3045C44.4692 19.845 44.9023 20.5105 45.6015 21.0021C46.3014 21.4934 47.1702 21.7394 48.2082 21.7394C49.5315 21.7394 50.6222 21.3265 51.4803 20.5L52.8501 22.2797C52.3087 22.8922 51.766 23.2209 50.9384 23.534C50.1112 23.8478 49.1787 24.0042 48.1403 24.0042C46.8165 24.0042 45.6501 23.7551 44.643 23.2568C43.6346 22.7581 42.856 22.0637 42.3072 21.1733C41.7583 20.2828 41.4833 19.2754 41.4833 18.1494C41.4833 17.0382 41.7509 16.0378 42.2849 15.1477C42.8182 14.2572 43.5597 13.5628 44.5071 13.0642C45.4553 12.5659 46.5234 12.3164 47.7112 12.3164C48.8851 12.3164 49.9342 12.562 50.8598 13.0533C51.7846 13.5453 52.5067 14.2362 53.0255 15.1262C53.5452 16.0167 53.8041 17.046 53.8041 18.2137C53.8041 18.3985 53.7893 18.6621 53.7592 19.0048ZM45.4211 15.2116C44.797 15.7177 44.4178 16.3902 44.2819 17.2305H51.1196C50.9985 16.4051 50.6301 15.7348 50.0132 15.2226C49.396 14.7095 48.629 14.4526 47.7112 14.4526C46.8087 14.4522 46.0453 14.7056 45.4211 15.2116Z" fill="#0B0B0B"/><path d="M66.3391 13.0424C67.2645 13.527 67.9904 14.2112 68.5166 15.0939C69.0429 15.9773 69.3065 16.9953 69.3065 18.1498C69.3065 19.303 69.0429 20.3257 68.5166 21.2158C67.9904 22.1062 67.2645 22.7932 66.3391 23.2779C65.4136 23.7617 64.3645 24.0042 63.1912 24.0042C61.5666 24.0042 60.2799 23.4915 59.3329 22.4661V28.0001H56.5118V12.4447H58.0745L59.1973 13.9398C59.6635 13.3987 60.2385 12.9928 60.9235 12.7219C61.6074 12.4521 62.3644 12.3164 63.1912 12.3164C64.3645 12.3164 65.4136 12.5585 66.3391 13.0424ZM65.4368 20.7351C66.106 20.0805 66.4411 19.2176 66.4411 18.1498C66.4411 17.0815 66.106 16.2195 65.4368 15.5641C64.7666 14.9087 63.9125 14.5808 62.8754 14.5808C62.1988 14.5808 61.5887 14.7278 61.0477 15.0194C60.5061 15.3115 60.0769 15.7282 59.761 16.2698C59.4457 16.8109 59.2875 17.4375 59.2875 18.1498C59.2875 18.8617 59.4457 19.4886 59.761 20.0297C60.0769 20.5709 60.5061 20.9877 61.0477 21.2801C61.5887 21.5721 62.1988 21.7184 62.8754 21.7184C63.9125 21.7184 64.7666 21.3905 65.4368 20.7351Z" fill="#0B0B0B"/><path d="M83.2747 19.0048H73.8193C73.9849 19.845 74.4176 20.5105 75.1168 21.0021C75.816 21.4934 76.6859 21.7394 77.7236 21.7394C79.0472 21.7394 80.1376 21.3265 80.9951 20.5L82.3855 22.261C81.8434 22.8735 81.2814 23.2209 80.4535 23.534C79.6261 23.8478 78.6944 24.0042 77.6556 24.0042C76.3314 24.0042 75.1655 23.7551 74.1578 23.2568C73.1496 22.7581 72.3716 22.0637 71.8226 21.1733C71.2731 20.2828 70.9987 19.2754 70.9987 18.1494C70.9987 17.0382 71.2658 16.0378 71.8005 15.1477C72.3336 14.2572 73.0753 13.5628 74.0223 13.0642C74.9705 12.5659 76.0383 12.3164 77.2268 12.3164C78.4007 12.3164 79.4498 12.562 80.3747 13.0533C81.3001 13.5453 82.022 14.2362 82.5409 15.1262C83.0598 16.0167 83.3195 17.046 83.3195 18.2137C83.3195 18.3985 83.3047 18.6621 83.2747 19.0048ZM74.9364 15.2116C74.3121 15.7177 73.9322 16.3902 73.7972 17.2305H80.6344C80.5136 16.4051 80.1456 15.7348 79.5286 15.2226C78.9116 14.7095 78.1438 14.4526 77.2268 14.4526C76.3241 14.4522 75.5608 14.7056 74.9364 15.2116Z" fill="#0B0B0B"/><path d="M93 12.3164V14.8592C92.7584 14.8159 92.5407 14.7948 92.345 14.7948C91.2472 14.7948 90.3898 15.0978 89.7728 15.7029C89.1558 16.3087 88.8473 17.1809 88.8473 18.3201V23.8545H86.0267V12.4447H87.4302L88.7124 14.111C89.5244 12.9141 90.9534 12.3164 93 12.3164Z" fill="#0B0B0B"/><path d="M26.5833 23.8545L21.9752 18.0129L26.4438 12.4228L23.7448 12.4014L19.2614 18.0094L19.2791 18.0219L23.8638 23.8338L26.5833 23.8545Z" fill="#0B0B0B"/><path d="M16.9693 25.9162H4.3364L5.97962 23.8545H18.6126L16.9693 25.9162Z" fill="#0B0B0B"/></svg>