<svg width="52" height="36" viewBox="0 0 52 36" fill="none" xmlns="http://www.w3.org/2000/svg"><path d="M26.9826 27.5411C25.9777 27.4724 24.8189 27.2918 23.9049 27.0204C23.7337 26.9695 23.0248 26.7024 22.8445 26.6176C19.6625 25.1065 17.4458 21.8079 17.4458 17.9809C17.4458 12.7319 21.6112 8.45638 26.7345 8.45638C31.8122 8.45638 35.9495 12.659 36.0207 17.8486H39.3763C39.3052 10.7629 33.6634 5.02035 26.7345 5.02035C19.7643 5.02035 14.091 10.8333 14.091 17.9809C14.091 22.9085 16.794 27.1943 20.7519 29.3837C21.4665 29.7713 22.4921 30.1707 22.8404 30.2801C23.9686 30.6243 25.3532 30.8533 26.5856 30.9491C27.0041 30.9813 28.4657 30.9983 28.8916 31H52V27.5733H28.9305C28.6237 27.5733 27.2829 27.5614 26.9826 27.5411ZM28.9305 22.1606C28.6865 22.1606 27.4103 22.1521 27.1745 22.1318C26.775 22.097 26.196 22.036 25.8238 21.9486C25.4036 21.8333 25.0091 21.6807 24.8313 21.5806C23.5848 20.8895 22.7353 19.5378 22.7353 17.9809C22.7353 15.716 24.5244 13.8792 26.7345 13.8792C28.8983 13.8792 30.6576 15.6439 30.7279 17.8486H33.952C33.8842 13.8207 30.6816 10.5746 26.7345 10.5746C22.7436 10.5746 19.5087 13.8902 19.5087 17.9809C19.5087 20.8658 21.1216 23.3571 23.4706 24.5774C23.8321 24.7945 24.512 25.0217 24.7055 25.0734C25.3689 25.2524 26.2597 25.3745 26.9826 25.4288C27.2498 25.4516 28.5583 25.4618 28.8346 25.4635V25.4686H51.9992V22.1606H28.9305ZM12.0232 30.9873H8.64516V8.46401H3.70885V5H12.0232V30.9873ZM0 10.1947V13.5256H3.70885V30.9873H6.95451V10.1947H0Z" fill="#0B0B0B"/></svg>