<?xml version="1.0" encoding="utf-8"?><svg viewBox="0 0 28 28" xmlns="http://www.w3.org/2000/svg" xmlns:xlink="http://www.w3.org/1999/xlink"><style>:root>svg{display:none}:root>svg:target{display:block}</style><svg viewBox="0 0 28 28" id="applestore" xmlns="http://www.w3.org/2000/svg"><path d="M21.738 15.04c0 .123-.184 3.747 3.807 5.65-.737 2.272-3.316 7.308-6.325 7.308-1.72 0-2.702-1.105-4.667-1.105-2.027 0-3.132 1.105-4.667 1.105-2.948.123-5.773-5.404-6.571-7.676a14.633 14.633 0 01-.86-4.974c0-5.466 3.623-8.107 7.062-8.168 1.658 0 3.746 1.167 4.667 1.167.86 0 3.255-1.413 5.466-1.228 2.272.184 3.991 1.044 5.158 2.702-2.026 1.29-3.07 2.947-3.07 5.22zm-3.44-10.07C17.072 6.381 15.598 7.18 14 7.056c-.123-1.658.491-3.193 1.597-4.421.982-1.106 2.702-2.027 4.176-2.15 0 .676.184 2.518-1.474 4.483z"/></svg><svg viewBox="0 0 28 28" id="arrow-type-1" xmlns="http://www.w3.org/2000/svg"><path d="M14.75 18l-.68-.654 3.055-2.875H9v-.942h8.125l-3.056-2.875.681-.654L19 14l-4.25 4z"/></svg><svg viewBox="0 0 28 28" id="arrow-type-2" xmlns="http://www.w3.org/2000/svg"><path d="M17.5 11.5l-2.61 4.457c-.424.724-1.355.724-1.78 0l-2.61-4.455 7-.002z"/></svg><svg viewBox="0 0 24 24" id="close" xmlns="http://www.w3.org/2000/svg"><path fill-rule="evenodd" clip-rule="evenodd" d="M5.54 5.54a.65.65 0 01.92 0L12 11.08l5.54-5.54a.65.65 0 11.92.92L12.92 12l5.54 5.54a.65.65 0 11-.92.92L12 12.92l-5.54 5.54a.65.65 0 01-.92-.92L11.08 12 5.54 6.46a.65.65 0 010-.92z"/></svg><svg viewBox="0 0 28 28" id="huaweistore" xmlns="http://www.w3.org/2000/svg"><path fill-rule="evenodd" clip-rule="evenodd" d="M0 7.855C0 2.104 2.104 0 7.856 0h12.288C25.896 0 28 2.104 28 7.855v12.29C28 25.896 25.892 28 20.14 28H7.856C2.104 28 0 25.896 0 20.145V7.855zm14 1.478a4.672 4.672 0 01-4.667-4.667h.66A4.012 4.012 0 0014 8.674a4.012 4.012 0 004.007-4.008h.66A4.672 4.672 0 0114 9.333zm-1.787 6.906h1.124l-.564-1.311-.56 1.311zm-.277.661l-.334.763h-.759L12.458 14h.656l1.608 3.663h-.78l-.329-.763h-1.677zm12.218.76h.734V14h-.734v3.66zm-2.92-1.572h1.352v-.667h-1.353v-.75h1.964v-.668H20.5v3.66h2.768v-.668h-2.035v-.907zm-2.917.433L17.485 14h-.607l-.832 2.52-.81-2.518h-.791l1.278 3.663h.615l.834-2.406.833 2.406h.62l1.275-3.663h-.771l-.812 2.519zm-8.594-.423c0 .596-.296.915-.834.915-.54 0-.837-.328-.837-.94v-2.07h-.744v2.095c0 1.031.573 1.622 1.571 1.622 1.009 0 1.587-.602 1.587-1.652V14h-.743v2.098zM5.533 14h.744v3.666h-.744v-1.489H3.854v1.489H3.11V14h.744v1.479h1.68V14z"/></svg><svg viewBox="0 0 28 28" id="phone" xmlns="http://www.w3.org/2000/svg"><path d="M21.5 18.347c0 .383-.17 1.129-.33 1.48-.224.522-.82.863-1.3 1.13-.629.34-1.268.543-1.982.543-.99 0-1.885-.405-2.79-.735a9.958 9.958 0 01-1.865-.884c-1.811-1.119-3.995-3.303-5.114-5.114a9.955 9.955 0 01-.884-1.864c-.33-.906-.735-1.8-.735-2.792 0-.713.202-1.352.543-1.981.267-.48.608-1.076 1.13-1.3.351-.16 1.097-.33 1.48-.33.075 0 .15 0 .224.032.224.075.458.597.565.81.34.607.67 1.225 1.022 1.821.17.277.49.618.49.948 0 .65-1.928 1.598-1.928 2.174 0 .287.267.66.416.916 1.076 1.939 2.418 3.281 4.357 4.357.256.15.629.416.916.416.576 0 1.524-1.928 2.174-1.928.33 0 .67.32.948.49.596.351 1.214.681 1.821 1.022.213.107.735.341.81.565.032.074.032.149.032.224z"/></svg><svg viewBox="0 0 28 28" id="playmarket" xmlns="http://www.w3.org/2000/svg"><path d="M17.519 12.934l3.046-3.047L6.298 1.662 17.52 12.934zM3.404 1.002L16.402 14 3.404 26.998a1.926 1.926 0 01-1.117-1.777V2.83c0-.813.457-1.473 1.117-1.828zm21.579 11.475c.964.71.964 2.386.05 3.097L21.987 17.3 18.636 14l3.351-3.25 2.996 1.727zM6.298 26.337l11.221-11.22 3.046 3.046-14.267 8.175z"/></svg><svg viewBox="0 0 28 28" id="rustore" xmlns="http://www.w3.org/2000/svg"><path fill-rule="evenodd" clip-rule="evenodd" d="M2.072 25.927c1.952 1.95 5.092 1.95 11.373 1.95h1.11c6.281 0 9.422 0 11.373-1.95 1.95-1.951 1.95-5.092 1.95-11.373v-1.11c0-6.281 0-9.422-1.95-11.373C23.977.121 20.836.121 14.555.121h-1.11c-6.281 0-9.421 0-11.373 1.95C.122 4.022.122 7.163.122 13.444v1.11c0 6.281 0 9.421 1.95 11.373zm16.088-8.205l.004.001v1.628c0 .872-.823 1.51-1.673 1.299l-1.925-.481a.547.547 0 01-.348-.491l-.234-6.904c-.068-.913-.746-1.64-1.455-1.854a.095.095 0 00-.105.038.081.081 0 00.018.11c.175.135.657.577.657 1.34l-.001 7.393.281.071-.277-.07v1.632c0 .872-.824 1.51-1.673 1.299l-5.38-1.344a1.675 1.675 0 01-1.272-1.623v-9.04c0-.871.824-1.51 1.673-1.298l3.39.846v-1.63c0-.872.823-1.512 1.673-1.3l3.39.847V6.563c0-.871.823-1.51 1.672-1.298l5.38 1.343a1.675 1.675 0 011.272 1.623v9.04c0 .871-.824 1.51-1.673 1.299l-1.89-.473a.544.544 0 01-.383-.5l-.234-6.904c-.068-.913-.746-1.64-1.455-1.854a.095.095 0 00-.106.038.08.08 0 00.019.11c.175.135.657.577.657 1.34l-.002 7.395z"/></svg><svg viewBox="0 0 28 28" id="telegram" xmlns="http://www.w3.org/2000/svg"><path fill-rule="evenodd" clip-rule="evenodd" d="M17.99 20.112c.202.143.46.178.692.09a.725.725 0 00.453-.524c.543-2.553 1.86-9.014 2.355-11.335a.488.488 0 00-.163-.474.5.5 0 00-.498-.088c-2.62.97-10.691 3.999-13.99 5.22a.517.517 0 00-.339.498.518.518 0 00.37.478c1.48.442 3.422 1.058 3.422 1.058s.908 2.74 1.38 4.134c.06.175.197.313.378.36a.542.542 0 00.506-.129l1.936-1.827s2.232 1.637 3.498 2.539zm-6.881-5.423l1.05 3.461.232-2.192 6.366-5.741a.173.173 0 00.02-.236.178.178 0 00-.234-.04l-7.434 4.748z"/></svg><svg viewBox="0 0 28 28" id="view-grid" xmlns="http://www.w3.org/2000/svg"><path d="M7 8a1 1 0 011-1h4a1 1 0 011 1v4a1 1 0 01-1 1H8a1 1 0 01-1-1V8zM7 16a1 1 0 011-1h4a1 1 0 011 1v4a1 1 0 01-1 1H8a1 1 0 01-1-1v-4zM14.5 16a1 1 0 011-1h4a1 1 0 011 1v4a1 1 0 01-1 1h-4a1 1 0 01-1-1v-4zM14.5 8a1 1 0 011-1h4a1 1 0 011 1v4a1 1 0 01-1 1h-4a1 1 0 01-1-1V8z"/></svg><svg viewBox="0 0 28 28" id="view-list" xmlns="http://www.w3.org/2000/svg"><path d="M5 8a1 1 0 011-1h1a1 1 0 011 1v1a1 1 0 01-1 1H6a1 1 0 01-1-1V8zM5 13.5a1 1 0 011-1h1a1 1 0 011 1v1a1 1 0 01-1 1H6a1 1 0 01-1-1v-1zM5 19a1 1 0 011-1h1a1 1 0 011 1v1a1 1 0 01-1 1H6a1 1 0 01-1-1v-1zM10 19a1 1 0 011-1h10a1 1 0 011 1v1a1 1 0 01-1 1H11a1 1 0 01-1-1v-1zM10 13.5a1 1 0 011-1h10a1 1 0 011 1v1a1 1 0 01-1 1H11a1 1 0 01-1-1v-1zM10 8a1 1 0 011-1h10a1 1 0 011 1v1a1 1 0 01-1 1H11a1 1 0 01-1-1V8z"/></svg></svg>