<svg width="28" height="28" viewBox="0 0 28 28" xmlns="http://www.w3.org/2000/svg"><path d="M21.5 18.3466C21.5 18.7301 21.3295 19.4759 21.1697 19.8274C20.946 20.3494 20.3494 20.6903 19.87 20.9567C19.2415 21.2976 18.6023 21.5 17.8885 21.5C16.8977 21.5 16.0028 21.0952 15.0973 20.7649C14.4474 20.5305 13.8189 20.2429 13.233 19.8807C11.4219 18.7621 9.23793 16.5781 8.11932 14.767C7.7571 14.1811 7.46946 13.5526 7.23509 12.9027C6.90483 11.9972 6.5 11.1023 6.5 10.1115C6.5 9.39773 6.70241 8.75852 7.04332 8.12997C7.30966 7.65057 7.65057 7.05398 8.17259 6.83026C8.52415 6.67046 9.26989 6.5 9.65341 6.5C9.72798 6.5 9.80256 6.5 9.87713 6.53196C10.1009 6.60653 10.3352 7.12855 10.4418 7.34162C10.7827 7.94886 11.1129 8.56676 11.4645 9.16335C11.6349 9.44034 11.9545 9.78125 11.9545 10.1115C11.9545 10.7614 10.0263 11.7095 10.0263 12.2848C10.0263 12.5724 10.2926 12.9453 10.4418 13.201C11.5178 15.1399 12.8601 16.4822 14.799 17.5582C15.0547 17.7074 15.4276 17.9737 15.7152 17.9737C16.2905 17.9737 17.2386 16.0455 17.8885 16.0455C18.2188 16.0455 18.5597 16.3651 18.8366 16.5355C19.4332 16.8871 20.0511 17.2173 20.6584 17.5582C20.8714 17.6648 21.3935 17.8991 21.468 18.1229C21.5 18.1974 21.5 18.272 21.5 18.3466Z"/></svg>