<svg width="28" height="28" viewBox="0 0 28 28" xmlns="http://www.w3.org/2000/svg"><path fill-rule="evenodd" clip-rule="evenodd" d="M2.07231 25.9267C4.02353 27.8779 7.16397 27.8779 13.4448 27.8779H14.5552C20.836 27.8779 23.9765 27.8779 25.9277 25.9267C27.8789 23.9755 27.8789 20.835 27.8789 14.5541V14.5541V13.4438V13.4438C27.8789 7.16289 27.8789 4.02242 25.9277 2.07122C23.9765 0.120117 20.836 0.120117 14.5552 0.120117H13.4448C7.16397 0.120117 4.02353 0.120117 2.07231 2.07122C0.121094 4.02245 0.121094 7.1629 0.121094 13.4438V14.5541C0.121094 20.835 0.121094 23.9755 2.07231 25.9267ZM18.1601 17.7222L18.1644 17.7233V19.3511C18.1644 20.2226 17.3409 20.8618 16.4914 20.6496L14.5658 20.1685C14.3643 20.09 14.2256 19.8981 14.2181 19.6777L13.9841 12.7743C13.9164 11.8606 13.2382 11.1339 12.5294 10.92C12.4896 10.9079 12.4471 10.9241 12.4236 10.9583C12.3996 10.9931 12.4089 11.0413 12.4423 11.0672C12.6173 11.2026 13.099 11.6448 13.099 12.4074L13.0976 19.8008L13.3791 19.8721L13.1019 19.8029V21.4341C13.1019 22.3056 12.2784 22.9448 11.4289 22.7326L6.0496 21.3888C5.30171 21.202 4.77734 20.533 4.77734 19.7657V10.7261C4.77734 9.85464 5.60084 9.21548 6.45029 9.42767L9.83984 10.2744V8.64316C9.83984 7.77166 10.6634 7.13247 11.5128 7.34466L14.9023 8.19139V6.56305C14.9023 5.69155 15.7259 5.0524 16.5753 5.26459L21.9547 6.60838C22.7025 6.79518 23.2269 7.46417 23.2269 8.23145V17.271C23.2269 18.1425 22.4034 18.7817 21.554 18.5695L19.6633 18.0972C19.4431 18.0291 19.2885 17.8286 19.2807 17.5962L19.0466 10.6932C18.9789 9.77955 18.3007 9.05289 17.5919 8.83891C17.5521 8.82689 17.5096 8.84307 17.4861 8.87729C17.4621 8.91209 17.4714 8.96025 17.5048 8.98612C17.6798 9.12159 18.1615 9.56373 18.1615 10.3263L18.1601 17.7222Z"/></svg>