<svg width="28" height="28" viewBox="0 0 28 28" xmlns="http://www.w3.org/2000/svg"><path d="M7 8C7 7.44772 7.44772 7 8 7H12C12.5523 7 13 7.44772 13 8V12C13 12.5523 12.5523 13 12 13H8C7.44772 13 7 12.5523 7 12V8Z"/><path d="M7 16C7 15.4477 7.44772 15 8 15H12C12.5523 15 13 15.4477 13 16V20C13 20.5523 12.5523 21 12 21H8C7.44772 21 7 20.5523 7 20V16Z"/><path d="M14.5 16C14.5 15.4477 14.9477 15 15.5 15H19.5C20.0523 15 20.5 15.4477 20.5 16V20C20.5 20.5523 20.0523 21 19.5 21H15.5C14.9477 21 14.5 20.5523 14.5 20V16Z"/><path d="M14.5 8C14.5 7.44772 14.9477 7 15.5 7H19.5C20.0523 7 20.5 7.44772 20.5 8V12C20.5 12.5523 20.0523 13 19.5 13H15.5C14.9477 13 14.5 12.5523 14.5 12V8Z"/></svg>