<svg width="28" height="28" viewBox="0 0 28 28" xmlns="http://www.w3.org/2000/svg"><path d="M21.7377 15.0406C21.7377 15.1634 21.5535 18.7866 25.5452 20.6903C24.8082 22.9625 22.229 27.9982 19.2199 27.9982C17.5004 27.9982 16.5178 26.8928 14.5527 26.8928C12.5262 26.8928 11.4208 27.9982 9.88552 27.9982C6.93782 28.121 4.11294 22.5941 3.31461 20.3219C2.70051 18.6024 2.45486 16.9443 2.45486 15.3476C2.45486 9.88211 6.07808 7.24147 9.51706 7.18006C11.1751 7.18006 13.2631 8.34685 14.1842 8.34685C15.044 8.34685 17.439 6.93442 19.6498 7.11865C21.9219 7.30288 23.6414 8.16262 24.8082 9.8207C22.7817 11.1103 21.7377 12.7684 21.7377 15.0406ZM18.2987 4.96928C17.0705 6.38172 15.5967 7.18006 14 7.05724C13.8772 5.39916 14.4913 3.8639 15.5967 2.63569C16.5792 1.5303 18.2987 0.609149 19.7726 0.486328C19.7726 1.16184 19.9568 3.00415 18.2987 4.96928Z"/></svg>