<svg width="28" height="28" viewBox="0 0 28 28" xmlns="http://www.w3.org/2000/svg"><path fill-rule="evenodd" clip-rule="evenodd" d="M0 7.8548C0 2.10361 2.10398 0 7.85633 0L20.1437 0C25.896 0 28 2.10361 28 7.8548V20.1452C28 25.8964 25.8921 28 20.1399 28H7.85633C2.10398 28 0 25.8964 0 20.1452L0 7.8548ZM13.9997 9.33305C11.4262 9.33305 9.33301 7.23962 9.33301 4.66638H9.99218C9.99218 6.87594 11.7901 8.67365 13.9997 8.67365C16.2092 8.67365 18.0072 6.87594 18.0072 4.66638H18.6663C18.6663 7.23962 16.5729 9.33305 13.9997 9.33305ZM12.2127 16.2393H13.3368L12.7729 14.9277L12.2127 16.2393ZM11.9359 16.9003L11.6024 17.6634H10.8431L12.4578 14.0001H13.114L14.7222 17.6634H13.9426L13.6134 16.9003H11.9359ZM24.1543 17.6607H24.8881V13.9999H24.1543V17.6607ZM21.2334 16.0881H22.5862V15.4206H21.2334V14.6703H23.1971V14.0026H20.4998V17.6632H23.2678V16.9954H21.2334V16.0881ZM18.3175 16.5206L17.4855 13.9999H16.8783L16.0464 16.5206L15.2366 14.0019H14.4449L15.7227 17.6654H16.3382L17.1716 15.259L18.0049 17.6654H18.6258L19.9002 14.0019H19.129L18.3175 16.5206ZM9.72283 16.0982C9.72283 16.6941 9.4269 17.0126 8.88949 17.0126C8.34916 17.0126 8.05165 16.6849 8.05165 16.0728V14.0024H7.30788V16.0982C7.30788 17.1291 7.88084 17.7203 8.87937 17.7203C9.88779 17.7203 10.4659 17.1179 10.4659 16.0676V14.0001H9.72283V16.0982ZM5.53341 14.0001H6.27673V17.6656H5.53341V16.177H3.85412V17.6656H3.11035V14.0001H3.85412V15.4786H5.53341V14.0001Z"/></svg>