<svg width="28" height="28" viewBox="0 0 28 28" xmlns="http://www.w3.org/2000/svg"><path fill-rule="evenodd" clip-rule="evenodd" d="M17.9902 20.112C18.1915 20.2545 18.4509 20.2901 18.6821 20.2026C18.9134 20.1145 19.0834 19.917 19.1346 19.6776C19.6777 17.1251 20.9952 10.6645 21.4896 8.34259C21.5271 8.16759 21.4646 7.98572 21.3271 7.86884C21.1896 7.75197 20.999 7.71822 20.829 7.78134C18.2084 8.75134 10.1377 11.7795 6.839 13.0001C6.62962 13.0776 6.49337 13.2788 6.50025 13.4995C6.50775 13.7207 6.6565 13.9126 6.87087 13.977C8.35025 14.4195 10.2921 15.0351 10.2921 15.0351C10.2921 15.0351 11.1996 17.7757 11.6727 19.1695C11.7321 19.3445 11.869 19.482 12.0496 19.5295C12.2296 19.5763 12.4221 19.527 12.5565 19.4001C13.3165 18.6826 14.4915 17.5732 14.4915 17.5732C14.4915 17.5732 16.724 19.2101 17.9902 20.112ZM11.109 14.6888L12.1584 18.1501L12.3915 15.9582C12.3915 15.9582 16.4459 12.3013 18.7571 10.217C18.8246 10.1557 18.834 10.0532 18.7777 9.98134C18.7221 9.90947 18.6196 9.89259 18.5427 9.94134C15.864 11.652 11.109 14.6888 11.109 14.6888Z"/></svg>