<svg width="28" height="28" viewBox="0 0 28 28" xmlns="http://www.w3.org/2000/svg"><path d="M5 8C5 7.44772 5.44772 7 6 7H7C7.55228 7 8 7.44772 8 8V9C8 9.5523 7.55228 10 7 10H6C5.44772 10 5 9.5523 5 9V8Z"/><path d="M5 13.5C5 12.9477 5.44772 12.5 6 12.5H7C7.55228 12.5 8 12.9477 8 13.5V14.5C8 15.0523 7.55228 15.5 7 15.5H6C5.44772 15.5 5 15.0523 5 14.5V13.5Z"/><path d="M5 19C5 18.4477 5.44772 18 6 18H7C7.55228 18 8 18.4477 8 19V20C8 20.5523 7.55228 21 7 21H6C5.44772 21 5 20.5523 5 20V19Z"/><path d="M10 19C10 18.4477 10.4477 18 11 18H21C21.5523 18 22 18.4477 22 19V20C22 20.5523 21.5523 21 21 21H11C10.4477 21 10 20.5523 10 20V19Z"/><path d="M10 13.5C10 12.9477 10.4477 12.5 11 12.5H21C21.5523 12.5 22 12.9477 22 13.5V14.5C22 15.0523 21.5523 15.5 21 15.5H11C10.4477 15.5 10 15.0523 10 14.5V13.5Z"/><path d="M10 8C10 7.44772 10.4477 7 11 7H21C21.5523 7 22 7.44772 22 8V9C22 9.5523 21.5523 10 21 10H11C10.4477 10 10 9.5523 10 9V8Z"/></svg>